<svg width="60" height="60" viewBox="0 0 60 60" xmlns="http://www.w3.org/2000/svg">
    <path d="M15 45V15C15 12 20 10 30 10C40 10 45 12 45 15V45C45 42 40 40 30 40C20 40 15 42 15 45Z" fill="none" stroke="#2A5CAA" stroke-width="2"/>
    <path d="M15 30C15 27 20 25 30 25C40 25 45 27 45 30" fill="none" stroke="#2A5CAA" stroke-width="2"/>
    <path d="M15 15C15 12 20 10 30 10C40 10 45 12 45 15" fill="none" stroke="#2A5CAA" stroke-width="2"/>
    <path d="M30 10V40" fill="none" stroke="#2A5CAA" stroke-width="2"/>
</svg>